<svg version="1.1" id="Layer_1" xmlns="http://www.w3.org/2000/svg" xmlns:xlink="http://www.w3.org/1999/xlink" x="0px" y="0px"
	 width="100%" viewBox="0 0 183 183" enable-background="new 0 0 183 183" xml:space="preserve">
<path fill="#FFFFFF" opacity="1.000000" stroke="none" 
	d="
M121.000000,184.000000 
	C81.833336,184.000000 43.166531,183.957230 4.500282,184.083969 
	C1.516759,184.093750 0.911822,183.482483 0.917334,180.499847 
	C1.027910,120.666725 1.000000,60.833344 1.000000,1.000009 
	C60.666656,1.000000 120.333397,1.037417 179.999756,0.903070 
	C183.424576,0.895358 184.104950,1.575191 184.097015,5.000196 
	C183.961746,63.333210 183.961746,121.666718 184.097000,179.999725 
	C184.104950,183.424576 183.430008,184.139160 179.998947,184.102097 
	C160.501205,183.891327 141.000015,184.000000 121.000000,184.000000 
z"/>
<path fill="#7044C1" opacity="1.000000" stroke="none" 
	d="
M71.000053,152.003723 
	C64.839081,152.002350 59.175461,152.111282 53.517628,151.976761 
	C41.549747,151.692230 33.105522,143.386627 33.042850,131.435638 
	C32.904900,105.129364 32.889839,78.821198 33.049801,52.515175 
	C33.123226,40.440063 41.500595,32.107960 53.556843,32.043537 
	C79.863091,31.902967 106.171265,31.891941 132.477325,32.049042 
	C144.447449,32.120525 152.893173,40.609467 152.957001,52.559063 
	C153.096619,78.698830 153.080872,104.840187 152.968201,130.980194 
	C152.913986,143.556839 144.512604,151.905228 131.939301,151.973419 
	C111.793411,152.082657 91.646507,152.003342 71.000053,152.003723 
z"/>
<path fill="#FEFEFF" opacity="1.000000" stroke="none" 
	d="
M119.795120,70.729919 
	C120.645416,80.875778 119.872673,82.635193 111.474342,90.362030 
	C122.421593,96.174477 125.638054,103.534210 122.076263,115.246811 
	C119.221687,124.633827 111.084175,127.032158 102.957733,127.639603 
	C91.528008,128.493973 79.992912,127.909943 68.503685,128.022827 
	C66.364998,128.043854 65.585220,127.266052 65.589806,125.128700 
	C65.635902,103.644806 65.640862,82.160728 65.587646,60.676868 
	C65.581825,58.326622 66.749641,57.966118 68.698006,57.982449 
	C79.854362,58.075970 91.028526,57.740421 102.162201,58.272026 
	C110.148582,58.653351 117.195053,61.437557 119.795120,70.729919 
z"/>
<path fill="#7245C2" opacity="1.000000" stroke="none" 
	d="
M85.078705,118.005981 
	C77.995201,118.000656 77.994469,118.000656 77.994286,111.456940 
	C77.994164,107.301796 78.072601,103.144707 77.966721,98.992294 
	C77.911629,96.831635 78.735481,96.066284 80.879753,96.115547 
	C87.522461,96.268135 94.187431,95.992851 100.807854,96.428871 
	C108.082520,96.907990 111.385117,100.853271 111.098976,107.756775 
	C110.836716,114.084053 106.984917,117.736542 100.027206,117.966484 
	C95.212402,118.125610 90.388268,118.002808 85.078705,118.005981 
z"/>
<path fill="#7348C3" opacity="1.000000" stroke="none" 
	d="
M93.690361,87.629318 
	C89.236465,87.628441 85.242516,87.519707 81.257912,87.665855 
	C78.704346,87.759514 77.686714,86.899208 77.791313,84.252022 
	C77.961830,79.936256 77.905991,75.607353 77.810059,71.287010 
	C77.762444,69.142509 78.111603,67.859612 80.747108,67.945435 
	C86.891541,68.145523 93.053001,67.912956 99.190514,68.209061 
	C104.799561,68.479668 107.585091,71.092293 107.998314,75.738708 
	C108.535301,81.776909 106.045753,85.665291 100.573853,86.934952 
	C98.492348,87.417923 96.297470,87.412369 93.690361,87.629318 
z"/>
</svg>